<svg width="184" height="30" viewBox="0 0 184 30" fill="none" xmlns="http://www.w3.org/2000/svg">
<g clip-path="url(#clip0_2319_156)">
<path d="M14.2305 13.9425C14.793 14.7075 15.0855 15.6525 15.0855 16.7325C15.0855 17.6775 14.838 18.51 14.3655 19.2525C13.8705 20.0175 13.218 20.6025 12.363 21.0075C11.508 21.435 10.5405 21.6375 9.46055 21.6375H0.685547V3.86249H8.87555C10.563 3.86249 11.8905 4.28999 12.8805 5.14499C13.848 5.99999 14.343 7.12499 14.343 8.54249C14.343 9.48749 14.118 10.32 13.668 10.995C13.218 11.67 12.588 12.165 11.8005 12.435C12.8355 12.66 13.6455 13.1775 14.2305 13.9425ZM4.19555 11.175H7.72805C8.76305 11.175 9.52805 11.04 10.023 10.725C10.518 10.41 10.7655 9.93749 10.7655 9.28499C10.7655 8.60999 10.4955 8.09249 9.97805 7.75499C9.46055 7.43999 8.67305 7.25999 7.61555 7.25999H4.19555V11.175ZM10.6755 17.7225C11.193 17.385 11.463 16.8675 11.463 16.1475C11.463 15.495 11.193 15 10.698 14.685C10.203 14.37 9.41555 14.2125 8.35805 14.2125H4.19555V18.24H8.26805C9.34805 18.24 10.1355 18.0825 10.6755 17.7225Z" fill="#0A0D12"/>
<path d="M16.9376 7.91244C16.5326 7.50744 16.3301 7.01244 16.3301 6.38244C16.3301 5.79744 16.5326 5.30244 16.9376 4.89744C17.3426 4.51494 17.8376 4.31244 18.4676 4.31244C19.0751 4.31244 19.5701 4.51494 19.9751 4.89744C20.3801 5.30244 20.5826 5.79744 20.5826 6.38244C20.5826 6.98994 20.3801 7.48494 19.9751 7.88994C19.5701 8.29494 19.0751 8.49744 18.4676 8.49744C17.8376 8.49744 17.3426 8.31744 16.9376 7.91244ZM16.7801 9.93744H20.1326V21.6374H16.7801V9.93744Z" fill="#0A0D12"/>
<path d="M24.5042 21.21C23.5592 20.67 22.8167 19.9275 22.2992 18.9825C21.7592 18.0375 21.5117 16.98 21.5117 15.765C21.5117 14.5725 21.7592 13.515 22.2992 12.57C22.8167 11.625 23.5592 10.905 24.5042 10.365C25.4492 9.84745 26.5292 9.57745 27.7442 9.57745C28.9592 9.57745 30.0392 9.84745 30.9842 10.365C31.9292 10.905 32.6492 11.625 33.1892 12.57C33.7292 13.515 33.9992 14.5725 33.9992 15.765C33.9992 16.98 33.7292 18.0375 33.1892 18.9825C32.6492 19.9275 31.9067 20.67 30.9617 21.21C30.0167 21.75 28.9367 21.9975 27.7442 21.9975C26.5292 21.9975 25.4492 21.75 24.5042 21.21ZM29.8367 18.1725C30.3767 17.5425 30.6467 16.755 30.6467 15.765C30.6467 14.7975 30.3767 14.01 29.8367 13.38C29.2967 12.7725 28.5992 12.4575 27.7442 12.4575C26.8892 12.4575 26.2142 12.7725 25.6742 13.38C25.1342 14.01 24.8642 14.7975 24.8642 15.765C24.8642 16.755 25.1342 17.5425 25.6742 18.1725C26.2142 18.8025 26.8892 19.1175 27.7442 19.1175C28.5992 19.1175 29.2967 18.8025 29.8367 18.1725Z" fill="#0A0D12"/>
<path d="M36.5076 20.9175C35.4951 20.1975 34.9776 19.185 34.9551 17.9025H38.2626C38.2626 18.465 38.5101 18.8925 38.9601 19.2075C39.4101 19.5225 39.9951 19.68 40.7151 19.68C41.3226 19.68 41.8176 19.5675 42.1776 19.2975C42.5378 19.0275 42.7403 18.7125 42.7403 18.3525C42.7403 17.925 42.5153 17.6325 42.0651 17.4525C41.6151 17.295 40.9401 17.1375 39.9951 17.0025C39.0051 16.8675 38.1951 16.71 37.5651 16.53C36.9351 16.35 36.3726 16.0125 35.9226 15.5175C35.4726 15.0225 35.2476 14.325 35.2476 13.425C35.2476 12.255 35.7201 11.31 36.7101 10.6125C37.7001 9.93751 39.0501 9.57751 40.7601 9.57751C42.3126 9.57751 43.5503 9.96001 44.4953 10.7025C45.4403 11.445 45.9578 12.4575 46.0703 13.74H42.7853C42.7403 13.1775 42.5378 12.7275 42.1551 12.39C41.7501 12.075 41.2326 11.895 40.5576 11.895C39.9276 11.895 39.4551 12.03 39.1176 12.2775C38.7576 12.5475 38.6001 12.885 38.6001 13.29C38.6001 13.695 38.8026 13.9875 39.2301 14.145C39.6576 14.325 40.3326 14.46 41.2326 14.55C42.2226 14.685 43.0553 14.865 43.7078 15.045C44.3378 15.225 44.9003 15.585 45.3728 16.08C45.8228 16.575 46.0703 17.295 46.0703 18.24C46.0703 19.41 45.5753 20.31 44.6078 20.985C43.6403 21.66 42.3126 21.9975 40.6251 21.9975C38.8701 21.9975 37.4976 21.6375 36.5076 20.9175Z" fill="#0A0D12"/>
<path d="M46.9649 23.19H48.1124C48.8324 23.2125 49.4174 23.1225 49.8674 22.92C50.2949 22.7175 50.6999 22.3575 51.0824 21.8175L45.7949 9.9375H49.3049L52.8149 17.745L55.7399 9.9375H59.2274L54.4574 22.4925C53.8724 23.865 53.1074 24.81 52.1399 25.35C51.1724 25.89 49.9349 26.1375 48.4049 26.1375H46.9649V23.19Z" fill="#0A0D12"/>
<path d="M59.7871 9.93745H63.1171V11.625C63.5221 10.995 64.0396 10.4775 64.7146 10.1175C65.3896 9.75745 66.1771 9.57745 67.0771 9.57745C69.9571 9.57745 71.4196 11.4 71.4196 15.0225V21.6375H68.0446V15.2025C68.0446 14.3475 67.8421 13.695 67.4371 13.2C67.0321 12.705 66.4696 12.4575 65.7496 12.4575C64.9396 12.4575 64.2871 12.75 63.8146 13.335C63.3421 13.92 63.1171 14.685 63.1171 15.6525V21.6375H59.7871V9.93745Z" fill="#0A0D12"/>
<path d="M78.0525 21.7275C77.1525 21.7275 76.455 21.6375 75.96 21.4575C75.4425 21.2775 75.06 20.9625 74.835 20.49C74.5875 20.0175 74.475 19.3425 74.4975 18.4875V12.975H72L72.2108 9.93754H74.4975V6.78754H77.8275V9.93754H80.8875L80.6775 12.975H77.8275V16.7775C77.8275 17.3625 77.85 17.7675 77.895 18.015C77.94 18.285 78.075 18.465 78.255 18.5775C78.435 18.69 78.7275 18.735 79.155 18.735C79.47 18.735 80.3683 18.7125 80.8858 18.6675L80.6775 21.615C79.665 21.705 78.615 21.7275 78.0525 21.7275Z" fill="#0A0D12"/>
<path d="M82.1465 3.86249H85.4765V11.6025C85.8815 10.9725 86.399 10.4775 87.074 10.1175C87.749 9.75749 88.5365 9.57749 89.4365 9.57749C92.3165 9.57749 93.779 11.4 93.779 15V21.6375H90.404V15.1575C90.404 14.3025 90.2015 13.65 89.7965 13.1775C89.3915 12.705 88.829 12.4575 88.109 12.4575C87.299 12.4575 86.6465 12.75 86.174 13.3125C85.7015 13.8975 85.4765 14.6625 85.4765 15.6075V21.6375H82.1465V3.86249Z" fill="#0A0D12"/>
<path d="M97.9768 21.21C97.0318 20.67 96.3118 19.9275 95.7943 18.9825C95.2768 18.0375 95.0293 16.98 95.0293 15.765C95.0293 14.5725 95.2768 13.515 95.7943 12.57C96.3118 11.625 97.0318 10.905 97.9768 10.365C98.8993 9.84745 99.9568 9.57745 101.149 9.57745C102.184 9.57745 103.107 9.84745 103.939 10.3425C104.772 10.8375 105.424 11.5575 105.919 12.48C106.392 13.425 106.639 14.4825 106.639 15.6975V16.7775H98.4268C98.4943 17.565 98.7643 18.1725 99.2143 18.6225C99.6643 19.0725 100.317 19.275 101.172 19.275C101.734 19.275 102.207 19.14 102.567 18.87C102.927 18.6 103.152 18.2625 103.242 17.835H106.572C106.392 19.095 105.784 20.1075 104.794 20.8725C103.804 21.6375 102.589 21.9975 101.149 21.9975C99.9568 21.9975 98.8993 21.75 97.9768 21.21ZM103.287 14.73C103.242 14.055 103.039 13.515 102.634 13.0875C102.229 12.6825 101.689 12.4575 101.014 12.4575C100.249 12.4575 99.6643 12.66 99.2368 13.065C98.8093 13.47 98.5393 14.0325 98.4493 14.73H103.287Z" fill="#0A0D12"/>
<path d="M109.144 20.9175C108.132 20.1975 107.614 19.185 107.592 17.9025H110.899C110.899 18.465 111.147 18.8925 111.597 19.2075C112.047 19.5225 112.632 19.68 113.352 19.68C113.959 19.68 114.454 19.5675 114.814 19.2975C115.174 19.0275 115.377 18.7125 115.377 18.3525C115.377 17.925 115.152 17.6325 114.702 17.4525C114.252 17.295 113.577 17.1375 112.632 17.0025C111.642 16.8675 110.832 16.71 110.202 16.53C109.572 16.35 109.009 16.0125 108.559 15.5175C108.109 15.0225 107.884 14.325 107.884 13.425C107.884 12.255 108.357 11.31 109.347 10.6125C110.337 9.93745 111.687 9.57745 113.397 9.57745C114.949 9.57745 116.187 9.95995 117.132 10.7025C118.077 11.445 118.594 12.4575 118.707 13.74H115.422C115.377 13.1775 115.174 12.7275 114.792 12.39C114.387 12.075 113.869 11.895 113.194 11.895C112.564 11.895 112.092 12.03 111.754 12.2775C111.394 12.5475 111.237 12.885 111.237 13.29C111.237 13.695 111.439 13.9875 111.867 14.145C112.294 14.325 112.969 14.46 113.869 14.55C114.859 14.685 115.692 14.865 116.344 15.045C116.974 15.225 117.537 15.585 118.009 16.08C118.459 16.575 118.707 17.295 118.707 18.24C118.707 19.41 118.212 20.31 117.244 20.985C116.277 21.66 114.949 21.9975 113.262 21.9975C111.507 21.9975 110.134 21.6375 109.144 20.9175Z" fill="#0A0D12"/>
<path d="M120.236 7.9125C119.831 7.5075 119.629 7.0125 119.629 6.3825C119.629 5.7975 119.831 5.3025 120.236 4.8975C120.641 4.515 121.136 4.3125 121.766 4.3125C122.374 4.3125 122.869 4.515 123.274 4.8975C123.679 5.3025 123.881 5.7975 123.881 6.3825C123.881 6.99 123.679 7.485 123.274 7.89C122.869 8.295 122.374 8.4975 121.766 8.4975C121.136 8.4975 120.641 8.3175 120.236 7.9125ZM120.079 9.9375H123.431V21.6375H120.079V9.9375Z" fill="#0A0D12"/>
<path d="M134.373 20.9175C135.386 20.1975 135.903 19.185 135.926 17.9025H132.618C132.618 18.465 132.371 18.8925 131.921 19.2075C131.471 19.5225 130.886 19.68 130.166 19.68C129.558 19.68 129.063 19.5675 128.703 19.2975C128.343 19.0275 128.141 18.7125 128.141 18.3525C128.141 17.925 128.366 17.6325 128.816 17.4525C129.266 17.295 129.941 17.1375 130.886 17.0025C131.876 16.8675 132.686 16.71 133.316 16.53C133.946 16.35 134.508 16.0125 134.958 15.5175C135.408 15.0225 135.633 14.325 135.633 13.425C135.633 12.255 135.161 11.31 134.171 10.6125C133.181 9.93751 131.831 9.57751 130.121 9.57751C128.568 9.57751 127.331 9.96001 126.386 10.7025C125.441 11.445 124.923 12.4575 124.811 13.74H128.096C128.141 13.1775 128.343 12.7275 128.726 12.39C129.131 12.075 129.648 11.895 130.323 11.895C130.953 11.895 131.426 12.03 131.763 12.2775C132.123 12.5475 132.281 12.885 132.281 13.29C132.281 13.695 132.078 13.9875 131.651 14.145C131.223 14.325 130.548 14.46 129.648 14.55C128.658 14.685 127.826 14.865 127.173 15.045C126.543 15.225 125.981 15.585 125.508 16.08C125.058 16.575 124.811 17.295 124.811 18.24C124.811 19.41 125.306 20.31 126.273 20.985C127.241 21.66 128.568 21.9975 130.256 21.9975C132.011 21.9975 133.383 21.6375 134.373 20.9175Z" fill="#0A0D12"/>
</g>
<defs>
<clipPath id="clip0_2319_156">
<rect width="183.129" height="28.275" fill="white" transform="translate(0.685547 0.862488)"/>
</clipPath>
</defs>
</svg>
